<svg width="80" height="80" viewBox="0 0 80 80" fill="none" xmlns="http://www.w3.org/2000/svg">
    <g clip-path="url(#clip0_1127_2658)">
        <path d="M79.1071 38.7386L68.0161 34.8571C63.59 33.3072 58.7246 33.6178 54.5318 35.7172C50.3384 37.8166 47.174 41.5244 45.7617 45.9959L42.8594 55.186L40.002 57.3286V38.1368C39.9993 35.5786 41.2795 33.1887 43.409 31.7731L43.3946 31.7516C43.4712 31.7108 43.5438 31.6613 43.6108 31.6061C48.9669 26.2496 51.7651 18.8504 51.2945 11.2901L50.6687 1.24964C50.6292 0.617783 50.1513 0.10105 49.5244 0.0116923C48.8996 -0.0709717 48.3005 0.291478 48.0833 0.883847L43.7714 12.9524C42.1593 17.4611 41.335 22.2128 41.3357 27.0013V30.0053C38.8153 31.9494 37.3377 34.9538 37.3357 38.1378V40.7794L35.9803 39.4226C35.752 29.5097 29.3243 20.8052 19.914 17.6737L11.0924 14.7413C10.6362 14.5883 10.1339 14.6937 9.77678 15.0147C9.42002 15.3377 9.26339 15.8266 9.36848 16.2962L10.8353 22.9109C13.1841 33.7044 22.7631 41.3852 33.8099 41.3299H34.1178L37.3357 44.5485V73.837L34.6693 72.5033V69.761C34.6693 63.0545 31.4448 56.7556 26.0037 52.835C20.5616 48.9136 13.5673 47.8463 7.20449 49.9678L0.916332 52.0639C0.369478 52.2439 0 52.7546 0 53.3306C0 53.9062 0.369478 54.417 0.916332 54.5973L2.34505 55.0736C9.18775 57.3487 15.5743 60.8212 21.2035 65.3289L32.502 74.3674C32.5793 74.421 32.6613 74.4658 32.748 74.5013L32.74 74.5193L37.3357 76.8195V79.9942H40.002V60.6619L44.8022 57.0615L44.7878 57.0431C44.8424 57.0117 44.8946 56.9759 44.9445 56.938C53.3886 48.523 64.3839 43.1455 76.2095 41.6469L78.833 41.3196C79.4471 41.2416 79.9271 40.752 79.9927 40.1375C80.0579 39.522 79.6914 38.9427 79.1071 38.7386Z" fill="black"/>
    </g>
    <defs>
        <clipPath id="clip0_1127_2658">
            <rect width="80" height="80" fill="white"/>
        </clipPath>
    </defs>
</svg>
